<svg width="60" height="60" viewBox="0 0 60 60" fill="none" xmlns="http://www.w3.org/2000/svg">
<circle cx="30" cy="30" r="30" fill="#5E4F71"/>
<path fill-rule="evenodd" clip-rule="evenodd" d="M19.9046 20.0047C17.2779 21.2049 15.3541 24.0612 15.3541 27.4669C15.3541 30.9455 16.7791 33.6277 18.8185 35.9267C20.5015 37.8204 22.5377 39.391 24.5232 40.9205C24.9961 41.2847 25.4632 41.6478 25.9245 42.0099C26.7573 42.6669 27.4999 43.2417 28.2171 43.6613C28.9344 44.0809 29.5091 44.2709 30 44.2709C30.4908 44.2709 31.0671 44.0809 31.7828 43.6613C32.5 43.2417 33.2426 42.6669 34.0755 42.0099C34.5367 41.6468 35.0038 41.2842 35.4767 40.9221C37.4622 39.3894 39.4984 37.8204 41.1815 35.9267C43.2224 33.6277 44.6458 30.9455 44.6458 27.4669C44.6458 24.0628 42.722 21.2049 40.0953 20.0047C37.543 18.8378 34.1135 19.1465 30.855 22.5333C30.7442 22.6482 30.6114 22.7396 30.4645 22.8021C30.3176 22.8645 30.1596 22.8967 30 22.8967C29.8403 22.8967 29.6824 22.8645 29.5354 22.8021C29.3885 22.7396 29.2557 22.6482 29.145 22.5333C25.8865 19.1465 22.457 18.8378 19.9046 20.0047ZM30 20.0617C26.3393 16.7842 22.24 16.325 18.9166 17.8434C15.4111 19.4505 12.9791 23.1745 12.9791 27.4685C12.9791 31.6881 14.7366 34.9086 17.0435 37.5053C18.8897 39.5842 21.1491 41.3243 23.1457 42.8601C23.5996 43.2084 24.0355 43.5473 24.4535 43.8766C25.2658 44.5163 26.1366 45.1971 27.0185 45.7133C27.9005 46.2294 28.9075 46.6474 30 46.6474C31.0925 46.6474 32.0995 46.2279 32.9814 45.7133C33.8649 45.1971 34.7341 44.5163 35.5464 43.8766C35.9644 43.5473 36.4003 43.2084 36.8542 42.8601C38.8492 41.3243 41.1102 39.5826 42.9564 37.5053C45.2633 34.9086 47.0208 31.6881 47.0208 27.4685C47.0208 23.1745 44.5904 19.4505 41.0833 17.8466C37.7599 16.3266 33.6606 16.7858 30 20.0617Z" fill="#B3B3B3"/>
</svg>
